#!OML:ASF F:\VICON\USERDATA\INSTALL\Justin_Nancy\Justin_Nancy.ASF
:FULLY-SPECIFIED
:DEGREES
34
root -9.13397 17.3644 -27.9129 -0.208874 -3.4581 4.97089
lowerback 6.52853 -3.46463 -7.6288
upperback -1.62347 -5.06653 4.71518
thorax -4.2832 -2.25893 9.80731
lowerneck -7.981 1.33711 -14.2145
upperneck 19.228 3.23423 4.02314
head 6.93236 0.880375 3.92003
rclavicle -5.78463e-014 5.56597e-014
rhumerus -38.4563 -5.89648 -74.9605
rradius 29.003
rwrist 6.6771
rhand -12.5962 16.3877
rfingers 7.12502
rthumb 13.4824 -13.1559
lclavicle -5.78463e-014 5.56597e-014
lhumerus -34.5868 16.3551 81.6518
lradius 35.5139
lwrist -7.71514
lhand -17.2721 24.277
lfingers 7.12502
lthumb 8.97278 54.0661
rfemur -29.9358 0.939758 15.6963
rtibia 28.1912
rfoot -4.26698 -9.20445
rtoes 7.73414
lfemur 0.0629665 -0.0906901 -30.0757
ltibia 22.485
lfoot -17.5184 -1.10733
ltoes 1.68559
35
root -9.15221 17.3704 -27.7622 -0.0307323 -2.89425 5.16052
lowerback 6.28758 -3.55636 -7.65518
upperback -1.51015 -5.18333 4.50104
thorax -4.01784 -2.3389 9.5646
lowerneck -8.2883 1.1132 -13.8927
upperneck 19.1494 2.92577 4.02945
head 6.99207 0.760119 3.85156
rclavicle 7.66315e-014 -1.43125e-014
rhumerus -38.1941 -6.67691 -74.9893
rradius 28.7032
rwrist 6.75638
rhand -12.2396 17.0824
rfingers 7.12502
rthumb 13.8261 -12.4381
lclavicle 7.66315e-014 -1.43125e-014
lhumerus -33.9822 15.6161 81.7223
lradius 35.8117
lwrist -7.51476
lhand -17.9997 24.7353
lfingers 7.12502
lthumb 8.2706 54.5534
rfemur -29.4073 1.02622 15.287
rtibia 25.0187
rfoot -4.22158 -9.39115
rtoes 7.88453
lfemur 0.653457 -0.178742 -30.1956
ltibia 22.0545
lfoot -17.6138 -1.27678
ltoes 1.03218
36
root -9.17179 17.3651 -27.6112 -0.000681801 -2.58574 5.32285
lowerback 6.27441 -3.31954 -7.6302
upperback -1.36218 -4.87144 4.21182
thorax -3.94824 -2.19486 9.20584
lowerneck -8.5916 0.688294 -13.326
upperneck 19.1342 2.31099 3.98354
head 7.10186 0.503049 3.70311
rclavicle -3.14577e-014 -3.18055e-015
rhumerus -38.2295 -8.11187 -74.782
rradius 28.6133
rwrist 7.15996
rhand -12.6516 16.0423
rfingers 7.12502
rthumb 13.429 -13.5048
lclavicle -3.14577e-014 -3.18055e-015
lhumerus -33.1836 14.2074 82.0576
lradius 36.0699
lwrist -7.36221
lhand -18.3201 25.9624
lfingers 7.12502
lthumb 7.96136 55.7925
rfemur -28.7379 1.29038 14.8885
rtibia 21.9636
rfoot -4.50399 -9.55388
rtoes 6.66123
lfemur 1.41256 0.0326473 -30.2517
ltibia 21.6728
lfoot -17.8098 -1.65071
ltoes 0.975885
37
root -9.19253 17.3551 -27.4619 -0.0372108 -2.37034 5.34872
lowerback 6.40123 -3.10897 -7.43502
upperback -1.23009 -4.58891 3.95437
thorax -3.97501 -2.06317 8.79873
lowerneck -9.17672 0.268669 -12.9711
upperneck 19.5445 1.75748 4.04626
head 7.39038 0.255063 3.63955
rclavicle -7.64824e-014 7.95139e-015
rhumerus -38.3716 -9.26337 -74.6534
rradius 28.6164
rwrist 7.50954
rhand -13.5006 14.2036
rfingers 7.12502
rthumb 12.6106 -15.3958
lclavicle -7.64824e-014 7.95139e-015
lhumerus -32.4723 13.3644 81.9811
lradius 36.0074
lwrist -8.22213
lhand -17.8238 25.9747
lfingers 7.12502
lthumb 8.44036 55.786
rfemur -28.0163 1.64637 14.6707
rtibia 19.1146
rfoot -4.75709 -9.68793
rtoes 5.70699
lfemur 2.37391 0.126369 -30.1878
ltibia 20.9656
lfoot -17.7182 -1.93779
ltoes 0.963774
38
root -9.21693 17.3518 -27.3093 -0.0765391 -1.88942 5.42281
lowerback 6.22326 -3.28897 -7.48139
upperback -1.02157 -4.82324 3.83949
thorax -3.61263 -2.20792 8.6884
lowerneck -9.44267 0.184829 -12.8724
upperneck 19.6787 1.65878 4.07976
head 7.49037 0.214026 3.63263
rclavicle -5.07398e-014 -1.74931e-014
rhumerus -38.1449 -9.46383 -74.8513
rradius 28.5534
rwrist 7.24668
rhand -12.3084 16.4674
rfingers 7.12502
rthumb 13.7598 -13.0576
lclavicle -5.07398e-014 -1.74931e-014
lhumerus -32.0792 13.0881 81.8517
lradius 36.0769
lwrist -7.67065
lhand -17.5259 26.9785
lfingers 7.12502
lthumb 8.72787 56.778
rfemur -27.2785 2.06566 14.3389
rtibia 16.6398
rfoot -4.8096 -10.2758
rtoes 2.84014
lfemur 3.42412 -0.10224 -30.1794
ltibia 20.2158
lfoot -17.578 -2.04505
ltoes 0.45869
39
root -9.24711 17.3583 -27.1555 -0.12837 -0.883247 5.32656
lowerback 6.08015 -3.57869 -7.44758
upperback -0.843598 -5.19753 3.80267
thorax -3.27487 -2.42132 8.62668
lowerneck -9.4822 0.231961 -12.8704
upperneck 19.6018 1.67485 4.35329
head 7.46394 0.250655 3.72399
rclavicle 3.03644e-014 -3.18055e-015
rhumerus -38.0766 -9.83329 -74.9099
rradius 28.5385
rwrist 7.16259
rhand -11.9444 17.7713
rfingers 7.12502
rthumb 14.1106 -11.7296
lclavicle 3.03644e-014 -3.18055e-015
lhumerus -31.6771 12.565 81.8964
lradius 36.1041
lwrist -7.09486
lhand -15.5344 30.5108
lfingers 7.12502
lthumb 10.6493 60.2209
rfemur -26.3703 2.80431 13.9291
rtibia 14.5745
rfoot -5.58452 -11.7271
rtoes 2.28084
lfemur 4.52136 -0.661565 -29.8316
ltibia 19.5245
lfoot -17.4932 -2.68737
ltoes 0.82528
40
root -9.27197 17.3541 -27.0041 -0.269104 -0.222355 5.49652
lowerback 6.24964 -3.62121 -7.58896
upperback -0.683289 -5.27924 3.62988
thorax -3.18908 -2.47063 8.53149
lowerneck -9.8997 -0.0539957 -12.6336
upperneck 19.6566 1.27835 4.46437
head 7.59108 0.089418 3.69463
rclavicle -5.09386e-014 -1.59028e-015
rhumerus -38.0885 -10.6283 -74.7592
rradius 28.3862
rwrist 7.72034
rhand -12.4099 17.2916
rfingers 7.12502
rthumb 13.662 -12.24
lclavicle -5.09386e-014 -1.59028e-015
lhumerus -31.064 11.9427 81.9118
lradius 36.0924
lwrist -7.38115
lhand -14.4996 32.4656
lfingers 7.12502
lthumb 11.6473 62.1218
rfemur -25.685 3.40572 13.3633
rtibia 13.1528
rfoot -6.31511 -12.5419
rtoes 1.5588
lfemur 5.64363 -1.05909 -29.8252
ltibia 18.8672
lfoot -17.3233 -3.25131
ltoes 2.06425
41
root -9.29286 17.3415 -26.8573 -0.165006 -0.25038 5.62775
lowerback 6.08713 -3.52879 -7.61885
upperback -0.605204 -5.15028 3.47392
thorax -3.05314 -2.41623 8.35509
lowerneck -10.079 -0.233686 -12.5143
upperneck 19.6319 1.00998 4.58795
head 7.6373 -0.0162723 3.69424
rclavicle 1.04561e-013 -1.59028e-015
rhumerus -37.9361 -11.7995 -74.3284
rradius 27.7701
rwrist 8.87443
rhand -12.054 17.2403
rfingers 7.12502
rthumb 14.005 -12.2679
lclavicle 1.04561e-013 -1.59028e-015
lhumerus -30.6262 11.6569 81.8157
lradius 36.1256
lwrist -7.93625
lhand -15.4203 30.5758
lfingers 7.12502
lthumb 10.7594 60.2802
rfemur -25.6476 3.87484 13.1227
rtibia 12.4063
rfoot -6.49465 -12.7907
rtoes 1.20976
lfemur 6.28999 -1.06261 -29.8798
ltibia 18.3663
lfoot -17.1169 -3.47164
ltoes 1.53693
42
root -9.31524 17.3359 -26.7125 0.0509932 -0.277539 5.65099
lowerback 5.8043 -3.48337 -7.58865
upperback -0.553475 -5.06951 3.38773
thorax -2.86601 -2.38845 8.21375
lowerneck -9.97785 -0.351645 -12.3489
upperneck 19.3602 0.806119 4.57353
head 7.54791 -0.0942382 3.63713
rclavicle -2.03257e-014 -7.95139e-015
rhumerus -37.7704 -12.5529 -74.148
rradius 27.4453
rwrist 9.57142
rhand -11.5721 17.5505
rfingers 7.12502
rthumb 14.4693 -11.9251
lclavicle -2.03257e-014 -7.95139e-015
lhumerus -30.2391 11.3409 81.7999
lradius 36.0418
lwrist -7.46431
lhand -16.859 28.5153
lfingers 7.12502
lthumb 9.3714 58.287
rfemur -25.9194 4.16935 13.1231
rtibia 12.3562
rfoot -6.63502 -13.181
rtoes 1.80781
lfemur 6.72337 -1.2958 -29.8735
ltibia 18.0234
lfoot -17.0017 -3.53466
ltoes -0.199351
43
root -9.3354 17.333 -26.5699 0.0178504 -0.25382 5.6506
lowerback 5.87643 -3.32748 -7.46388
upperback -0.419165 -4.85915 3.22166
thorax -2.831 -2.29181 7.95313
lowerneck -10.2762 -0.649793 -11.9148
upperneck 19.5442 0.399933 4.35877
head 7.70047 -0.280437 3.46285
rclavicle 4.36332e-014 -1.27222e-014
rhumerus -37.7665 -12.9728 -74.3554
rradius 27.6775
rwrist 9.18046
rhand -11.9693 17.1454
rfingers 7.12502
rthumb 14.0866 -12.3571
lclavicle 4.36332e-014 -1.27222e-014
lhumerus -29.6981 10.8556 81.7264
lradius 35.9023
lwrist -7.92198
lhand -16.2092 29.2341
lfingers 7.12502
lthumb 9.99833 58.9766
rfemur -25.9786 3.59478 13.4923
rtibia 12.7405
rfoot -6.76503 -12.9172
rtoes 1.87475
lfemur 7.25448 -1.39269 -29.8153
ltibia 17.9156
lfoot -16.82 -3.72051
ltoes -3.00715
44
root -9.35415 17.3206 -26.4282 -0.0174063 -0.298665 5.78258
lowerback 5.9417 -3.18751 -7.47007
upperback -0.321906 -4.67964 3.05931
thorax -2.81285 -2.20643 7.77415
lowerneck -10.5613 -0.934327 -11.7712
upperneck 19.8046 0.0274051 4.31333
head 7.87112 -0.457847 3.39561
rclavicle 4.46272e-014 -4.77083e-015
rhumerus -37.7505 -13.5162 -74.3509
rradius 27.6745
rwrist 9.04348
rhand -11.8983 17.9069
rfingers 7.12502
rthumb 14.155 -11.5909
lclavicle 4.46272e-014 -4.77083e-015
lhumerus -29.2223 10.3921 81.8056
lradius 35.4413
lwrist -7.04173
lhand -16.8111 28.1504
lfingers 7.12502
lthumb 9.41757 57.92
rfemur -26.1436 2.67868 13.8676
rtibia 13.4698
rfoot -6.43306 -12.2395
rtoes 0.405172
lfemur 7.7139 -1.58003 -29.9213
ltibia 17.9684
lfoot -16.596 -3.81776
ltoes -4.29107
